HIERARCHY
ROOT Hips
{
	OFFSET 0.000000 83.214638 0.000000
	CHANNELS 6 Xposition Yposition Zposition Xrotation Yrotation Zrotation
	JOINT Pelvis
	{
		OFFSET 0.000000 0.000000 0.000000
		CHANNELS 3 Xrotation Yrotation Zrotation
		JOINT LeftUpLeg
		{
			OFFSET 8.479700 -4.795502 -0.379100
			CHANNELS 3 Xrotation Yrotation Zrotation
			JOINT LeftLeg
			{
				OFFSET 0.024144 -32.555107 0.112900
				CHANNELS 3 Xrotation Yrotation Zrotation
				JOINT LeftFoot
				{
					OFFSET -0.024144 -32.638630 -3.012600
					CHANNELS 3 Xrotation Yrotation Zrotation
					JOINT LeftToeBase
					{
						OFFSET 0.970200 -13.225400 11.864200
						CHANNELS 3 Xrotation Yrotation Zrotation
						End Site
						{
							OFFSET 0.000000 12.319262 0.000000
						}
					}
					JOINT LFootTongue
					{
						OFFSET 1.142400 -1.059800 6.665200
						CHANNELS 3 Xrotation Yrotation Zrotation
						End Site
						{
							OFFSET 0.000000 12.319262 0.000000
						}
					}
				}
				JOINT LeftPantLeg
				{
					OFFSET 0.918482 -16.533964 -2.284700
					CHANNELS 3 Xrotation Yrotation Zrotation
					End Site
					{
						OFFSET 0.350399 24.744368 0.000000
					}
				}
			}
		}
		JOINT RightUpLeg
		{
			OFFSET -8.479700 -4.795502 -0.379100
			CHANNELS 3 Xrotation Yrotation Zrotation
			JOINT RightLeg
			{
				OFFSET -0.023144 -32.555092 0.112900
				CHANNELS 3 Xrotation Yrotation Zrotation
				JOINT RightFoot
				{
					OFFSET 0.023144 -32.638641 -3.012700
					CHANNELS 3 Xrotation Yrotation Zrotation
					JOINT RightToeBase
					{
						OFFSET -0.970200 -13.225400 11.864200
						CHANNELS 3 Xrotation Yrotation Zrotation
						End Site
						{
							OFFSET 0.000000 12.319244 0.000000
						}
					}
					JOINT RFootTongue
					{
						OFFSET -1.142200 -1.059800 6.665200
						CHANNELS 3 Xrotation Yrotation Zrotation
						End Site
						{
							OFFSET 0.000000 12.319243 0.000000
						}
					}
				}
				JOINT RightPantLeg
				{
					OFFSET -0.919482 -16.533978 -2.284800
					CHANNELS 3 Xrotation Yrotation Zrotation
					End Site
					{
						OFFSET -0.350400 24.744419 0.000000
					}
				}
			}
		}
	}
	JOINT Spine
	{
		OFFSET 0.000000 7.722000 1.166200
		CHANNELS 3 Xrotation Yrotation Zrotation
		JOINT Spine1
		{
			OFFSET 0.000000 12.024101 0.248800
			CHANNELS 3 Xrotation Yrotation Zrotation
			JOINT Spine2
			{
				OFFSET 0.000000 11.502998 -0.491200
				CHANNELS 3 Xrotation Yrotation Zrotation
				JOINT Neck
				{
					OFFSET 0.000000 18.430702 -3.123100
					CHANNELS 3 Xrotation Yrotation Zrotation
					JOINT Head
					{
						OFFSET 0.000000 9.051102 1.034000
						CHANNELS 3 Xrotation Yrotation Zrotation
						JOINT HairB
						{
							OFFSET 0.208400 24.786102 24.822300
							CHANNELS 3 Xrotation Yrotation Zrotation
							End Site
							{
								OFFSET 0.000000 32.263779 0.000000
							}
						}
						JOINT HairA
						{
							OFFSET -7.081100 24.428299 23.196600
							CHANNELS 3 Xrotation Yrotation Zrotation
							End Site
							{
								OFFSET 0.000000 32.263779 0.000000
							}
						}
						JOINT Hat
						{
							OFFSET 16.728800 15.048294 -15.439601
							CHANNELS 3 Xrotation Yrotation Zrotation
							End Site
							{
								OFFSET 0.000000 32.263779 0.000000
							}
						}
					}
				}
				JOINT LeftShoulder
				{
					OFFSET 6.197800 13.665199 -4.064700
					CHANNELS 3 Xrotation Yrotation Zrotation
					JOINT LeftArm
					{
						OFFSET 7.778100 -0.187103 -1.709300
						CHANNELS 3 Xrotation Yrotation Zrotation
						JOINT LeftForeArm
						{
							OFFSET 22.049376 0.000000 0.000000
							CHANNELS 3 Xrotation Yrotation Zrotation
							JOINT LeftHand
							{
								OFFSET 23.009392 0.000000 0.000000
								CHANNELS 3 Xrotation Yrotation Zrotation
								JOINT LeftHandThumb1
								{
									OFFSET 3.507191 -2.063065 3.133727
									CHANNELS 3 Xrotation Yrotation Zrotation
									JOINT LeftHandThumb2
									{
										OFFSET 3.101337 -1.790558 1.790558
										CHANNELS 3 Xrotation Yrotation Zrotation
										JOINT LeftHandThumb3
										{
											OFFSET 3.058640 -1.765907 1.765906
											CHANNELS 3 Xrotation Yrotation Zrotation
											End Site
											{
												OFFSET -0.415260 3.926476 -0.049563
											}
										}
									}
								}
								JOINT LeftHandIndex1
								{
									OFFSET 11.334419 -0.901459 3.706815
									CHANNELS 3 Xrotation Yrotation Zrotation
									JOINT LeftHandIndex2
									{
										OFFSET 3.283112 0.000000 0.000000
										CHANNELS 3 Xrotation Yrotation Zrotation
										JOINT LeftHandIndex3
										{
											OFFSET 3.323853 0.000000 0.000000
											CHANNELS 3 Xrotation Yrotation Zrotation
											End Site
											{
												OFFSET -1.135597 3.097809 0.402452
											}
										}
									}
								}
								JOINT LeftHandMiddle1
								{
									OFFSET 11.335861 0.000000 0.000000
									CHANNELS 3 Xrotation Yrotation Zrotation
									JOINT LeftHandMiddle2
									{
										OFFSET 3.410492 0.000000 0.000000
										CHANNELS 3 Xrotation Yrotation Zrotation
										JOINT LeftHandMiddle3
										{
											OFFSET 3.312172 0.000000 0.000000
											CHANNELS 3 Xrotation Yrotation Zrotation
											End Site
											{
												OFFSET -1.150200 3.080154 0.400270
											}
										}
									}
								}
								JOINT LeftHandRing1
								{
									OFFSET 11.514786 -0.013176 -3.003090
									CHANNELS 3 Xrotation Yrotation Zrotation
									JOINT LeftHandRing2
									{
										OFFSET 3.053307 0.000000 0.000000
										CHANNELS 3 Xrotation Yrotation Zrotation
										JOINT LeftHandRing3
										{
											OFFSET 3.295807 0.000000 0.000000
											CHANNELS 3 Xrotation Yrotation Zrotation
											End Site
											{
												OFFSET -1.281006 3.013344 0.375733
											}
										}
									}
								}
								JOINT LeftHandPinky1
								{
									OFFSET 10.518692 -0.960396 -5.730441
									CHANNELS 3 Xrotation Yrotation Zrotation
									JOINT LeftHandPinky2
									{
										OFFSET 2.861649 0.000000 0.000000
										CHANNELS 3 Xrotation Yrotation Zrotation
										JOINT LeftHandPinky3
										{
											OFFSET 2.863380 0.000000 0.000000
											CHANNELS 3 Xrotation Yrotation Zrotation
											End Site
											{
												OFFSET -0.843597 2.711159 0.369971
											}
										}
									}
								}
							}
							JOINT LSleeve
							{
								OFFSET 6.676277 -0.344902 -1.011730
								CHANNELS 3 Xrotation Yrotation Zrotation
								End Site
								{
									OFFSET 0.000000 14.885353 0.000000
								}
							}
						}
					}
				}
				JOINT RightShoulder
				{
					OFFSET -6.197800 13.665199 -4.064700
					CHANNELS 3 Xrotation Yrotation Zrotation
					JOINT RightArm
					{
						OFFSET -7.778100 -0.187103 -1.709300
						CHANNELS 3 Xrotation Yrotation Zrotation
						JOINT RightForeArm
						{
							OFFSET -22.049376 0.000000 0.000000
							CHANNELS 3 Xrotation Yrotation Zrotation
							JOINT RightHand
							{
								OFFSET -23.009392 0.000000 0.000000
								CHANNELS 3 Xrotation Yrotation Zrotation
								JOINT RightHandThumb1
								{
									OFFSET -3.507191 -2.063065 3.133727
									CHANNELS 3 Xrotation Yrotation Zrotation
									JOINT RightHandThumb2
									{
										OFFSET -3.101337 -1.790558 1.790558
										CHANNELS 3 Xrotation Yrotation Zrotation
										JOINT RightHandThumb3
										{
											OFFSET -3.058640 -1.765907 1.765906
											CHANNELS 3 Xrotation Yrotation Zrotation
											End Site
											{
												OFFSET 0.415260 3.926476 -0.049563
											}
										}
									}
								}
								JOINT RightHandIndex1
								{
									OFFSET -11.334419 -0.901459 3.706815
									CHANNELS 3 Xrotation Yrotation Zrotation
									JOINT RightHandIndex2
									{
										OFFSET -3.283112 0.000000 0.000000
										CHANNELS 3 Xrotation Yrotation Zrotation
										JOINT RightHandIndex3
										{
											OFFSET -3.323853 0.000000 0.000000
											CHANNELS 3 Xrotation Yrotation Zrotation
											End Site
											{
												OFFSET 1.135597 3.097809 0.402452
											}
										}
									}
								}
								JOINT RightHandMiddle1
								{
									OFFSET -11.335861 0.000000 0.000000
									CHANNELS 3 Xrotation Yrotation Zrotation
									JOINT RightHandMiddle2
									{
										OFFSET -3.410492 0.000000 0.000000
										CHANNELS 3 Xrotation Yrotation Zrotation
										JOINT RightHandMiddle3
										{
											OFFSET -3.312172 0.000000 0.000000
											CHANNELS 3 Xrotation Yrotation Zrotation
											End Site
											{
												OFFSET 1.150200 3.080154 0.400270
											}
										}
									}
								}
								JOINT RightHandRing1
								{
									OFFSET -11.514786 -0.013176 -3.003090
									CHANNELS 3 Xrotation Yrotation Zrotation
									JOINT RightHandRing2
									{
										OFFSET -3.053307 0.000000 0.000000
										CHANNELS 3 Xrotation Yrotation Zrotation
										JOINT RightHandRing3
										{
											OFFSET -3.295807 0.000000 0.000000
											CHANNELS 3 Xrotation Yrotation Zrotation
											End Site
											{
												OFFSET 1.281006 3.013344 0.375733
											}
										}
									}
								}
								JOINT RightHandPinky1
								{
									OFFSET -10.518692 -0.960396 -5.730441
									CHANNELS 3 Xrotation Yrotation Zrotation
									JOINT RightHandPinky2
									{
										OFFSET -2.861649 0.000000 0.000000
										CHANNELS 3 Xrotation Yrotation Zrotation
										JOINT RightHandPinky3
										{
											OFFSET -2.863380 0.000000 0.000000
											CHANNELS 3 Xrotation Yrotation Zrotation
											End Site
											{
												OFFSET 0.843597 2.711159 0.369971
											}
										}
									}
								}
							}
							JOINT RSleeve
							{
								OFFSET -6.676277 -0.344902 -1.011730
								CHANNELS 3 Xrotation Yrotation Zrotation
								End Site
								{
									OFFSET 0.000000 14.885353 0.000000
								}
							}
						}
					}
				}
				JOINT Backpack
				{
					OFFSET 0.000000 -2.471497 36.677502
					CHANNELS 3 Xrotation Yrotation Zrotation
					End Site
					{
						OFFSET 0.000000 20.427315 0.000000
					}
				}
				JOINT Hood
				{
					OFFSET 0.000000 18.754097 -10.431000
					CHANNELS 3 Xrotation Yrotation Zrotation
					JOINT Hood1
					{
						OFFSET 0.000000 -5.011002 -7.685901
						CHANNELS 3 Xrotation Yrotation Zrotation
						End Site
						{
							OFFSET 0.000000 9.175140 0.000000
						}
					}
				}
				JOINT LHoodieString
				{
					OFFSET 5.250500 16.397697 3.089900
					CHANNELS 3 Xrotation Yrotation Zrotation
					JOINT LHoodieString1
					{
						OFFSET 0.257700 -6.364304 3.694600
						CHANNELS 3 Xrotation Yrotation Zrotation
						JOINT LHoodieString2
						{
							OFFSET 0.000000 -9.643799 2.679100
							CHANNELS 3 Xrotation Yrotation Zrotation
							End Site
							{
								OFFSET 0.000000 10.009018 0.000000
							}
						}
					}
				}
				JOINT RHoodieString
				{
					OFFSET -5.250500 16.397697 3.089900
					CHANNELS 3 Xrotation Yrotation Zrotation
					JOINT RHoodieString1
					{
						OFFSET -0.257700 -6.364304 3.694600
						CHANNELS 3 Xrotation Yrotation Zrotation
						JOINT RHoodieString2
						{
							OFFSET 0.000000 -9.643799 2.679100
							CHANNELS 3 Xrotation Yrotation Zrotation
							End Site
							{
								OFFSET 0.000000 10.009018 0.000000
							}
						}
					}
				}
			}
			JOINT LBackpack_Strap
			{
				OFFSET 15.223200 -7.719803 -6.610900
				CHANNELS 3 Xrotation Yrotation Zrotation
				End Site
				{
					OFFSET 0.000000 16.040596 0.000000
				}
			}
			JOINT RBackpack_Strap
			{
				OFFSET -15.223000 -7.719803 -6.610900
				CHANNELS 3 Xrotation Yrotation Zrotation
				End Site
				{
					OFFSET 0.000000 16.040596 0.000000
				}
			}
		}
	}
	JOINT BoyFacialAnim_Joint
	{
		OFFSET 1.000000 -82.208099 -1.550900
		CHANNELS 3 Xrotation Yrotation Zrotation
		End Site
		{
			OFFSET 0.000000 30.012791 0.000000
		}
	}
}
MOTION
Frames: 4
Frame Time: 0.016667
-2.704854 80.549438 -6.280059 -9.384320 -0.928738 3.380700 0.000000 0.000000 0.000000 -7.326387 8.728615 -4.102114 24.510511 -0.287781 -0.253748 -8.494761 3.811524 3.328262 -0.000000 -0.000000 0.000000 -0.000000 -0.000000 -0.000000 0.000000 -0.000001 -0.000000 -12.907204 -13.652990 -16.206535 29.392865 0.465721 0.309419 -6.967317 -14.397759 4.322095 -0.000000 -0.000003 -0.000000 -0.000000 -0.000003 -0.000000 -0.000001 0.000002 -0.000001 7.161712 1.540857 -4.367046 14.244013 3.269502 -3.077380 14.269161 3.169303 -3.056459 34.427070 0.786429 -4.647344 -1.158475 2.164344 -5.573706 -0.000001 -0.000000 0.000002 -0.000001 -0.000000 0.000002 -0.000001 -0.000000 0.000002 -1.697377 -21.196980 -25.775466 -1.040197 -44.501783 -31.977894 4.422135 -24.531579 1.305856 -9.189765 -9.383455 -4.673697 -20.843946 2.778254 -4.205193 -15.861876 33.847832 10.250598 -0.000001 -0.000001 -0.000001 -3.032229 19.342239 -21.628877 6.299685 9.746919 -60.829030 -0.000002 0.000000 -0.000005 -13.487452 18.094998 -22.029650 6.757705 12.670225 -69.483678 -0.000002 -0.000001 -0.000000 -15.276609 16.701628 -37.493357 3.110954 12.310343 -81.609532 -0.000002 0.000001 -0.000002 -30.922636 24.752778 -41.174986 6.897631 7.241782 -89.331382 0.000000 0.000002 0.000000 -0.000001 0.000000 0.000001 -1.956282 23.252503 25.557185 -0.642663 20.673893 37.850125 388.848024 40.014393 -373.261177 -9.479960 7.418349 17.742885 -21.511951 -2.863834 5.102387 -16.456415 -31.619596 -10.828981 -0.000003 -0.000000 0.000001 -1.117322 -20.400102 22.512865 6.671898 -9.934595 63.001016 0.000001 0.000000 0.000000 -13.816745 -17.423213 21.320934 6.561193 -12.925902 68.651099 -0.000001 0.000000 -0.000000 -14.137721 -15.831752 36.119201 3.239837 -12.615812 81.908305 0.000000 -0.000003 0.000000 -31.246876 -25.471748 41.789737 6.380866 -7.478754 85.668986 -0.000001 -0.000001 -0.000002 0.000000 -0.000001 0.000001 -0.000001 0.000000 -0.000001 -0.000001 0.000000 -0.000001 -0.000001 0.000000 -0.000001 -0.000001 0.000000 -0.000001 -0.000001 0.000000 -0.000000 0.000001 -0.000001 0.000000 -0.000001 0.000000 -0.000001 -0.000001 0.000000 -0.000000 0.000001 -0.000001 0.000000 0.000001 0.000000 -0.000000 0.000001 0.000000 -0.000000 0.000000 0.000000 0.000000 
-2.371382 80.701210 -6.172992 -9.892901 -1.231818 3.581409 0.000000 0.000000 -0.000000 -5.824831 9.170872 -4.670300 23.095877 -0.267677 -0.245239 -8.017919 3.649149 3.606245 0.000000 0.000000 0.000000 0.000000 0.000000 0.000000 -0.000001 -0.000001 -0.000000 -11.980361 -13.624755 -16.641280 28.434120 0.450797 0.304849 -6.416365 -14.104139 4.640717 0.000000 -0.000003 0.000000 0.000000 -0.000003 0.000000 -0.000000 -0.000000 -0.000001 6.794629 1.601117 -4.504605 13.499547 3.300434 -3.157294 13.525422 3.199131 -3.135813 33.353426 1.110182 -4.334505 -1.596120 2.537175 -5.856433 0.000002 -0.000001 -0.000000 0.000002 -0.000001 -0.000000 0.000002 -0.000001 -0.000000 -1.205556 -20.666494 -24.364070 1.602673 -41.933591 -31.598210 4.490919 -26.563564 0.875690 -9.122650 -9.161210 -3.757649 -20.813313 1.465083 -4.329374 -17.962337 34.591466 10.894324 -0.000002 -0.000001 0.000001 -2.865774 20.397617 -21.773241 6.720259 9.983976 -64.054880 -0.000002 0.000001 -0.000003 -14.124317 18.570871 -22.021462 7.166301 13.162452 -72.156079 -0.000002 0.000001 -0.000001 -15.698981 16.729326 -37.472197 3.380861 13.021838 -85.361218 -0.000000 -0.000001 -0.000000 -32.764923 25.881151 -41.122424 7.141899 7.587558 -92.296865 -0.000004 0.000004 -0.000001 0.000003 0.000001 0.000000 -1.348471 22.309539 23.910457 2.405183 20.579672 39.044834 390.735042 42.386112 -375.654476 -9.510656 7.694595 16.288767 -21.155638 -1.499652 4.801369 -18.479126 -32.518544 -11.171440 -0.000002 0.000000 0.000001 -1.414013 -21.180239 23.136491 7.201693 -10.089888 66.392219 0.000002 0.000000 0.000000 -13.696635 -18.828222 22.659689 7.302398 -13.300219 72.456129 -0.000001 -0.000001 -0.000005 -14.448073 -16.935592 37.865998 3.852941 -13.239555 86.752145 -0.000001 -0.000003 0.000002 -32.393521 -27.169770 42.613697 7.303012 -7.722421 91.940452 0.000001 0.000000 -0.000001 0.000001 -0.000001 0.000001 -0.000000 -0.000000 -0.000000 -0.000000 -0.000000 -0.000000 -0.000000 -0.000000 -0.000000 -0.000000 -0.000000 -0.000000 -0.000000 -0.000000 -0.000000 0.000002 -0.000000 -0.000000 -0.000000 -0.000000 -0.000000 -0.000000 -0.000000 -0.000000 0.000002 -0.000000 -0.000000 0.000000 0.000000 -0.000000 0.000000 0.000000 -0.000000 0.000000 0.000000 -0.000000 
-2.043798 80.778534 -6.106851 -10.186751 -1.440488 3.765622 0.000000 0.000000 -0.000000 -4.854151 9.558851 -5.188983 22.170681 -0.255351 -0.239102 -7.717656 3.471491 3.889967 0.000000 -0.000000 -0.000000 0.000000 -0.000000 -0.000000 0.000001 -0.000001 -0.000001 -11.490227 -13.564844 -17.096076 27.850305 0.446853 0.302362 -6.010039 -13.889687 4.979377 0.000000 -0.000002 -0.000000 0.000000 -0.000002 -0.000000 -0.000001 0.000001 -0.000000 6.440722 1.614872 -4.631524 12.785434 3.259336 -3.237265 12.811445 3.157068 -3.215351 32.190989 1.385667 -4.182467 -2.117625 2.779012 -5.803761 -0.000002 -0.000000 -0.000002 -0.000002 -0.000000 -0.000002 -0.000002 -0.000000 -0.000002 -0.606959 -19.983605 -22.751681 3.591672 -39.451138 -31.646923 5.236535 -28.036369 0.947460 -9.048445 -8.981117 -2.662384 -20.797716 0.593361 -4.405176 -19.377547 35.076805 11.340717 -0.000000 -0.000001 0.000001 -2.843842 21.049282 -21.555201 6.983305 10.133567 -66.089955 -0.000001 0.000004 -0.000003 -14.712822 18.654505 -21.681834 7.427304 13.475979 -73.762204 -0.000002 -0.000003 -0.000000 -16.114170 16.583382 -37.151359 3.571177 13.484254 -87.649495 -0.000001 0.000003 0.000002 -34.046785 26.463788 -40.933682 7.318351 7.814310 -94.101340 -0.000001 -0.000000 0.000001 -0.000001 0.000002 0.000003 -0.713642 21.402172 22.136611 4.746090 20.510863 40.324873 391.595673 44.303646 -377.134769 -9.517318 8.185790 14.466658 -20.919485 -0.599296 4.588749 -19.743215 -33.270599 -11.347290 -0.000005 -0.000001 0.000000 -1.732028 -21.630758 23.353221 7.525108 -10.184741 68.548530 0.000000 0.000000 0.000004 -13.647392 -19.748109 23.428135 7.815859 -13.530625 74.982131 -0.000002 -0.000001 -0.000002 -14.832481 -17.503056 38.828044 4.283382 -13.641168 89.897912 -0.000000 -0.000002 0.000002 -33.250570 -28.094774 42.857910 7.902239 -7.871626 96.036981 -0.000003 -0.000000 0.000004 0.000000 0.000000 -0.000002 0.000004 0.000000 0.000000 0.000004 0.000000 0.000000 0.000004 0.000000 0.000000 0.000004 0.000000 0.000000 0.000004 0.000000 0.000001 0.000002 0.000000 0.000000 0.000004 0.000000 0.000000 0.000004 0.000000 0.000001 0.000002 0.000000 0.000000 0.000001 0.000000 0.000001 0.000001 0.000000 0.000001 0.000000 0.000000 -0.000000 
-1.735892 80.799004 -6.051016 -10.279033 -1.601120 3.934604 -0.000000 -0.000000 -0.000000 -4.332955 9.925987 -5.643411 21.667221 -0.246113 -0.235494 -7.593354 3.293562 4.163485 0.000000 0.000000 0.000000 0.000000 0.000000 -0.000000 -0.000001 0.000000 -0.000000 -11.382785 -13.443201 -17.549372 27.635072 0.439143 0.300827 -5.781139 -13.710003 5.239442 0.000000 -0.000001 0.000000 0.000000 -0.000001 0.000000 -0.000001 0.000001 -0.000001 6.094488 1.619314 -4.755792 12.086297 3.177757 -3.317953 12.112669 3.083688 -3.298395 30.904840 1.645484 -3.990194 -2.591294 2.961594 -5.738690 0.000002 -0.000000 0.000001 0.000002 -0.000000 0.000001 0.000002 -0.000000 0.000001 0.051153 -19.230210 -20.982111 4.852671 -36.960496 -32.152361 6.739173 -28.723859 1.369270 -8.972973 -8.751114 -1.470419 -20.780043 0.131064 -4.433527 -20.134382 35.301693 11.597093 -0.000002 -0.000001 -0.000001 -2.943785 21.290210 -21.292059 7.059021 10.202944 -66.897523 0.000000 0.000001 -0.000005 -15.195142 18.667274 -21.192991 7.557095 13.632480 -74.479354 -0.000000 0.000003 -0.000003 -16.474309 16.391680 -36.743771 3.655767 13.711825 -88.527994 -0.000002 0.000002 -0.000000 -34.882555 26.667418 -40.681628 7.415485 7.943080 -95.048585 0.000001 -0.000001 0.000003 -0.000000 -0.000001 0.000001 -0.076869 20.530186 20.303509 6.411388 20.396576 41.725178 391.669357 45.382417 -377.619794 -9.496804 8.760643 12.468585 -20.787051 -0.131114 4.453347 -20.394059 -33.885484 -11.409668 -0.000002 0.000000 0.000000 -1.978518 -21.846039 23.322086 7.606900 -10.233846 69.363501 -0.000000 -0.000000 0.000004 -13.665545 -20.156366 23.639252 8.028581 -13.635641 76.097931 -0.000001 -0.000002 -0.000000 -15.196104 -17.695982 39.083801 4.414953 -13.872907 91.092498 0.000001 -0.000003 0.000002 -33.824313 -28.399957 42.754433 8.070505 -7.958775 97.642663 -0.000002 0.000001 0.000004 0.000001 -0.000001 -0.000000 0.000000 -0.000001 -0.000000 0.000000 -0.000001 -0.000000 0.000000 -0.000001 -0.000000 0.000000 -0.000001 -0.000000 0.000000 -0.000001 -0.000000 -0.000002 0.000000 -0.000001 0.000000 -0.000001 -0.000000 0.000000 -0.000001 -0.000000 -0.000002 0.000000 -0.000001 -0.000000 -0.000000 0.000000 -0.000000 -0.000000 0.000000 -0.000000 -0.000000 -0.000000 
